<svg width="178" height="33" viewBox="0 0 178 33" fill="none" xmlns="http://www.w3.org/2000/svg">
<g id="ABI_Logo_FullColor-White 1" clip-path="url(#clip0_5279_2275)">
<g id="g10">
<g id="g12">
<g id="g14">
<g id="g16">
<path id="path28" d="M3.35974 20.2978C2.3132 19.9226 1.26146 19.6517 0.21915 19.4729C0.534404 21.1613 1.11669 22.8292 1.99299 24.4148C4.55254 29.0463 9.01666 31.9545 13.8689 32.7114C13.6923 27.6378 9.58138 22.5286 3.35974 20.2978ZM3.95229 15.1524C12.1654 14.4359 18.4869 8.03529 19.2488 0.252796C15.6707 -0.380726 11.861 0.158535 8.43308 2.0535C3.45207 4.8071 0.460527 9.76385 0 15.0379C1.28141 15.2235 2.6045 15.2699 3.95229 15.1524ZM16.4088 20.2521C16.1987 24.8208 17.6401 29.0821 20.2036 32.4614C21.6196 32.1234 23.0144 31.5949 24.3506 30.8563C32.3029 26.4602 35.1861 16.4486 30.7906 8.49503C29.8438 6.78159 28.6352 5.30507 27.244 4.08427C21.1149 6.94534 16.7409 13.0258 16.4088 20.2521Z" fill="url(#paint0_linear_5279_2275)"/>
</g>
</g>
<path id="path30" d="M87.1241 29.8027H91.8674V2.38838H87.1241V29.8027Z" fill="white"/>
<path id="path32" d="M106.181 9.9005C103.82 9.9005 101.561 10.7918 100.103 13.17V10.3172H95.8325V29.8032H100.399V19.4818C100.399 18.6744 100.471 17.9018 100.614 17.3362C101.139 15.2344 102.636 14.0137 104.84 14.0137C107.117 14.0137 108.43 15.1539 108.851 17.433C108.953 17.978 109.002 18.7549 109.002 19.478V29.8032H113.57V18.2724C113.57 16.9785 113.44 15.8091 113.139 14.8109C112.148 11.4994 109.501 9.9005 106.181 9.9005Z" fill="white"/>
<path id="path34" d="M128.827 25.3395C128.332 25.4564 127.505 25.4998 126.971 25.4998H121.72V17.7702H127.368C127.875 17.7702 128.454 17.821 128.863 17.9127C131.083 18.4054 131.934 20.1573 131.934 21.6295C131.934 23.5768 130.683 24.9025 128.827 25.3395ZM121.72 6.69178H125.932C126.892 6.69178 127.913 6.82428 128.568 7.12662C129.711 7.65318 130.327 8.63757 130.327 10.117C130.327 11.6036 129.671 12.6196 128.506 13.1431C127.923 13.4049 127.072 13.5434 126.088 13.5434H125.187H121.72V6.69178ZM132.386 15.1509C134.241 13.7267 135.02 12.093 135.02 9.75928C135.02 6.2666 132.856 3.64728 129.558 2.75512C128.701 2.52442 127.311 2.38901 125.691 2.38901H117.027V29.8027H126.732C128.623 29.8027 129.89 29.6226 131.133 29.1845C134.384 28.0365 136.627 25.5113 136.627 21.8061C136.627 18.7124 135.156 16.5092 132.386 15.1509Z" fill="white"/>
<path id="path36" d="M172.571 10.3166L167.692 24.2373L162.743 10.3166H157.794L165.532 29.8027H169.747L177.47 10.3166H172.571Z" fill="white"/>
<path id="path38" d="M142.851 18.5271C143.179 15.7229 145.452 13.8793 148.215 13.8793C151.117 13.8793 153.323 15.8007 153.648 18.5271H142.851ZM148.173 9.90049C142.627 9.90049 138.318 14.364 138.318 20.1965C138.318 25.5802 142.561 30.2192 148.367 30.2192C152.608 30.2192 155.893 27.7788 157.571 23.8255H152.926C151.879 25.3907 150.477 26.2401 148.445 26.2401C145.418 26.2401 143.438 24.4594 142.837 21.7194H158.042C158.156 21.0711 158.188 20.5275 158.18 19.8687C158.131 14.6314 154.116 9.90049 148.173 9.90049Z" fill="white"/>
<path id="path40" d="M75.0887 25.4965H69.4435V17.6167C70.1591 17.5866 70.8612 17.5705 71.5399 17.5786C76.6734 17.645 79.6602 19.1395 79.6603 21.7989C79.6603 24.1924 77.5206 25.4965 75.0887 25.4965ZM69.4435 6.69188H73.4693C74.3891 6.69188 75.1599 6.79656 75.688 6.96881C77.2174 7.46742 78.0514 8.6195 78.0514 10.4774C78.0514 12.1973 77.1857 13.3276 75.8116 13.8475C74.5038 13.6252 73.0414 13.5032 71.4101 13.5018C70.7982 13.5013 70.1252 13.511 69.4435 13.5324V6.69188ZM44.0296 23.5764L50.1195 7.81042L53.6622 17.2629C49.997 18.944 46.7296 21.1011 44.0296 23.5764ZM80.0693 15.1893C82.045 13.7438 82.7441 11.5821 82.7441 9.75937C82.7441 6.2667 80.5796 3.64738 77.2818 2.75496C76.4256 2.52452 75.0351 2.3891 73.4152 2.3891H64.7511V13.9565C62.3324 14.3228 59.993 14.895 57.7597 15.642L52.3515 2.38821H52.2138H48.0871H47.999L36.8125 29.8028H41.3768C45.3209 25.6322 50.0296 22.6394 54.9332 20.654L58.3622 29.8028H63.5379L59.2059 19.186C61.0601 18.6579 62.9173 18.2652 64.7511 17.9979V29.8028L67.1063 29.805L67.1055 29.8096H75.3769C81.2217 29.8096 84.3572 26.3801 84.3572 21.8078C84.3572 19.0348 82.9841 16.6778 80.0693 15.1893Z" fill="white"/>
</g>
</g>
</g>
<defs>
<linearGradient id="paint0_linear_5279_2275" x1="0" y1="16.3555" x2="32.8469" y2="16.3555" gradientUnits="userSpaceOnUse">
<stop stop-color="#CD9F28"/>
<stop offset="1" stop-color="#ECD80B"/>
</linearGradient>
<clipPath id="clip0_5279_2275">
<rect width="177.47" height="32.7113" fill="white"/>
</clipPath>
</defs>
</svg>
